{"title":"A Prairie Home Companion 2006 WEB-DL 720p Legendado PT-BR","uid":14936009,"size":3555730311,"categoryP":"video","categoryS":"hd___movies","magnet":"?xt=urn:btih:e82b86c1816dd5bdcf82f0bfe722fce8138e8d48&amp;dn=A+Prairie+Home+Companion+2006+WEB-DL+720p+Legendado+PT-BR&amp;tr=udp%3A%2F%2Ftracker.leechers-paradise.org%3A6969&amp;tr=udp%3A%2F%2Fzer0day.ch%3A1337&amp;tr=udp%3A%2F%2Fopen.demonii.com%3A1337&amp;tr=udp%3A%2F%2Ftracker.coppersurfer.tk%3A6969&amp;tr=udp%3A%2F%2Fexodus.desync.com%3A6969","seeders":0,"leechers":1,"uploader":null,"files":1,"time":1465998235,"description":"Audio: English\r\nLegendas/subtitles: Português / English (MKV track)\r\n\r\n===================================================\r\nA look at what goes on backstage during the last broadcast of America's most celebrated radio show, where singing cowboys Dusty and Lefty, a country music siren, and a host of others hold court. \r\n\r\n===================================================\r\nUm olhar sobre o que acontece nos bastidores da última transmissão do programa de rádio mais delebrado dos EUA, onde os cowboys cantores Dusty e Lefty, as irmãs cantoras Johnson e os demais lidam com o anjo da morte.\r\n\r\n====================================================\r\n\r\nVideo\r\nID                             : 1\r\nFormat                         : AVC\r\nFormat/Info                    : Advanced Video Codec\r\nFormat profile                 :   \r\nFormat settings, CABAC         : No\r\nFormat settings, ReFrames      : 2 frames\r\nCodec ID                       : V_MPEG4/ISO/AVC\r\nDuration                       : 1h 45mn\r\nBit rate                       : 4 018 Kbps\r\nWidth                          : 1 280 pixels\r\nHeight                         : 544 pixels\r\nDisplay aspect ratio           : 2.35:1\r\nFrame rate mode                : Constant\r\nFrame rate                     : 23.976 fps\r\nColor space                    : YUV\r\nChroma subsampling             : 4:2:0\r\nBit depth                      : 8 bits\r\nScan type                      : Progressive\r\nBits/(Pixel*Frame)             : 0.241\r\nStream size                    : 2.96 GiB (89%)\r\nDefault                        : No\r\nForced                         : No\r\nColor primaries                : BT.709\r\nTransfer characteristics       : BT.709\r\nMatrix coefficients            : BT.709\r\nColor range                    : Limited\r\n\r\n\r\nAudio\r\nID                             : 2\r\nFormat                         : AC-3\r\nFormat/Info                    : Audio Coding 3\r\nMode extension                 : CM (complete main)\r\nFormat settings, Endianness    : Big\r\nCodec ID                       : A_AC3\r\nDuration                       : 1h 45mn\r\nBit rate mode                  : Constant\r\nBit rate                       : 384 Kbps\r\nChannel(s)                     : 6 channels\r\nChannel positions              : Front: L C R, Side: L R, LFE\r\nSampling rate                  : 48.0 KHz\r\nBit depth                      : 16 bits\r\nCompression mode               : Lossy\r\nStream size                    : 290 MiB (9%)\r\nLanguage                       : English\r\nDefault                        : Yes\r\nForced                         : No\r\n\r\nText #1\r\nID                             : 3\r\nFormat                         : UTF-8\r\nCodec ID                       : S_TEXT/UTF8\r\nCodec ID/Info                  : UTF-8 Plain Text\r\nLanguage                       : Portuguese\r\nDefault                        : Yes\r\nForced                         : No\r\n\r\nText #2\r\nID                             : 4\r\nFormat                         : UTF-8\r\nCodec ID                       : S_TEXT/UTF8\r\nCodec ID/Info                  : UTF-8 Plain Text\r\nLanguage                       : English\r\nDefault                        : No\r\nForced                         : No\r\n\r\nMenu\r\n00:00:00.000                   : en:Main titles.\r\n00:02:33.000                   : en:Guy Noir.\r\n00:06:35.000                   : en:Preshow prep.\r\n00:12:43.000                   : en:On the air.\r\n00:17:47.000                   : en:Slow days of summer.\r\n00:20:33.000                   : en:End of an era.\r\n00:26:02.000                   : en:Softly and Tenderly.\r\n00:27:44.000                   : en:Old Plank Road.\r\n00:32:15.000                   : en:My Minnesota Home.\r\n00:36:45.000                   : en:Chuck.\r\n00:40:56.000                   : en:Whoop-I-Ti-Yi-Yo.\r\n00:44:40.000                   : en:Happy baked beans.\r\n00:46:27.000                   : en:Gold watch and chain.\r\n00:50:19.000                   : en:Duct tape.\r\n00:54:46.000                   : en:Lighthouse.\r\n00:58:07.000                   : en:I'm not here for you.\r\n01:05:00.000                   : en:The Day Is Short.\r\n01:08:19.000                   : en:Axeman.\r\n01:13:25.000                   : en:Guy's favor.\r\n01:16:24.000                   : en:Goodbye To My Mama.\r\n01:20:21.000                   : en:Bad jokes.\r\n01:25:43.000                   : en:Frankie and Johnny.\r\n01:29:49.000                   : en:Red River Valley.\r\n01:33:57.000                   : en:A Prairie Home reunion.\r\n01:38:31.000                   : en:End Credits","torrent":{"xt":"urn:btih:e82b86c1816dd5bdcf82f0bfe722fce8138e8d48","amp;dn":"A+Prairie+Home+Companion+2006+WEB-DL+720p+Legendado+PT-BR","amp;tr":["udp%3A%2F%2Ftracker.leechers-paradise.org%3A6969","udp%3A%2F%2Fzer0day.ch%3A1337","udp%3A%2F%2Fopen.demonii.com%3A1337","udp%3A%2F%2Ftracker.coppersurfer.tk%3A6969","udp%3A%2F%2Fexodus.desync.com%3A6969"],"infoHash":"e82b86c1816dd5bdcf82f0bfe722fce8138e8d48","infoHashBuffer":{"type":"Buffer","data":[232,43,134,193,129,109,213,189,207,130,240,191,231,34,252,232,19,142,141,72]},"announce":[],"urlList":[]}}